<svg aria-hidden="true" style="position:absolute;width:0;height:0;overflow:hidden" xmlns="http://www.w3.org/2000/svg">
  <defs>
    <symbol id="icon-html" viewBox="0 0 32 32">
      <path fill="#415e72" style="fill:var(--color1, #415e72)" d="M29.332 24.799V6.4c0-.44-.36-.8-.8-.8H3.471c-.44 0-.8.36-.8.8v18.399h26.662z"/>
      <path fill="#cfdce5" style="fill:var(--color2, #cfdce5)" d="M0 24.8h32v.534H0V24.8z"/>
      <path fill="#aac1ce" style="fill:var(--color3, #aac1ce)" d="M30.4 26.4H1.6L0 25.333h32z"/>
      <path fill="#fff" style="fill:var(--color4, #fff)" opacity=".7" d="M18.69 24.8h-5.38a.63.63 0 0 0 .614.534h4.151a.63.63 0 0 0 .615-.534z"/>
      <path fill="#fff" style="fill:var(--color4, #fff)" opacity=".12" d="M3.515 6.7h1v1h-1v-1zM5.692 6.7h1v1h-1v-1zM7.872 6.7h1v1h-1v-1zM10.05 6.7h1v1h-1v-1zM12.23 6.7h1v1h-1v-1zM14.41 6.7h1v1h-1v-1zM16.59 6.7h1v1h-1v-1zM18.77 6.7h1v1h-1v-1zM20.949 6.7h1v1h-1v-1zM23.13 6.7h1v1h-1v-1zM25.308 6.7h1v1h-1v-1zM27.488 6.7h1v1h-1v-1zM3.515 8.7h1v1h-1v-1zM5.692 8.7h1v1h-1v-1zM7.872 8.7h1v1h-1v-1zM10.05 8.7h1v1h-1v-1zM12.23 8.7h1v1h-1v-1zM14.41 8.7h1v1h-1v-1zM16.59 8.7h1v1h-1v-1zM18.77 8.7h1v1h-1v-1zM20.949 8.7h1v1h-1v-1zM23.13 8.7h1v1h-1v-1zM25.308 8.7h1v1h-1v-1zM27.488 8.7h1v1h-1v-1zM3.515 10.7h1v1h-1v-1zM5.692 10.7h1v1h-1v-1zM7.872 10.7h1v1h-1v-1zM10.05 10.7h1v1h-1v-1zM12.23 10.7h1v1h-1v-1zM14.41 10.7h1v1h-1v-1zM16.59 10.7h1v1h-1v-1zM18.77 10.7h1v1h-1v-1zM20.949 10.7h1v1h-1v-1zM23.13 10.7h1v1h-1v-1zM25.308 10.7h1v1h-1v-1zM27.488 10.7h1v1h-1v-1zM3.515 12.7h1v1h-1v-1zM5.692 12.7h1v1h-1v-1zM7.872 12.7h1v1h-1v-1zM10.05 12.7h1v1h-1v-1zM12.23 12.7h1v1h-1v-1zM14.41 12.7h1v1h-1v-1zM16.59 12.7h1v1h-1v-1zM18.77 12.7h1v1h-1v-1zM20.949 12.7h1v1h-1v-1zM23.13 12.7h1v1h-1v-1zM25.308 12.7h1v1h-1v-1zM27.488 12.7h1v1h-1v-1zM3.515 14.7h1v1h-1v-1zM5.692 14.7h1v1h-1v-1zM7.872 14.7h1v1h-1v-1zM10.05 14.7h1v1h-1v-1zM12.23 14.7h1v1h-1v-1zM14.41 14.7h1v1h-1v-1zM16.59 14.7h1v1h-1v-1zM18.77 14.7h1v1h-1v-1zM20.949 14.7h1v1h-1v-1zM23.13 14.7h1v1h-1v-1zM25.308 14.7h1v1h-1v-1zM27.488 14.7h1v1h-1v-1zM3.515 16.7h1v1h-1v-1zM5.692 16.7h1v1h-1v-1zM7.872 16.7h1v1h-1v-1zM10.05 16.7h1v1h-1v-1zM12.23 16.7h1v1h-1v-1zM14.41 16.7h1v1h-1v-1zM16.59 16.7h1v1h-1v-1zM18.77 16.7h1v1h-1v-1zM20.949 16.7h1v1h-1v-1zM23.13 16.7h1v1h-1v-1zM25.308 16.7h1v1h-1v-1zM27.488 16.7h1v1h-1v-1zM3.515 18.7h1v1h-1v-1zM5.692 18.7h1v1h-1v-1zM7.872 18.7h1v1h-1v-1zM10.05 18.7h1v1h-1v-1zM12.23 18.7h1v1h-1v-1zM14.41 18.7h1v1h-1v-1zM16.59 18.7h1v1h-1v-1zM18.77 18.7h1v1h-1v-1zM20.949 18.7h1v1h-1v-1zM23.13 18.7h1v1h-1v-1zM25.308 18.7h1v1h-1v-1zM27.488 18.7h1v1h-1v-1zM3.515 20.7h1v1h-1v-1zM5.692 20.7h1v1h-1v-1zM7.872 20.7h1v1h-1v-1zM10.05 20.7h1v1h-1v-1zM12.23 20.7h1v1h-1v-1zM14.41 20.7h1v1h-1v-1zM16.59 20.7h1v1h-1v-1zM18.77 20.7h1v1h-1v-1zM20.949 20.7h1v1h-1v-1zM23.13 20.7h1v1h-1v-1zM25.308 20.7h1v1h-1v-1zM27.488 20.7h1v1h-1v-1zM3.515 22.7h1v1h-1v-1zM5.692 22.7h1v1h-1v-1zM7.872 22.7h1v1h-1v-1zM10.05 22.7h1v1h-1v-1zM12.23 22.7h1v1h-1v-1zM14.41 22.7h1v1h-1v-1zM16.59 22.7h1v1h-1v-1zM18.77 22.7h1v1h-1v-1zM20.949 22.7h1v1h-1v-1zM23.13 22.7h1v1h-1v-1zM25.308 22.7h1v1h-1v-1zM27.488 22.7h1v1h-1v-1z"/>
      <path fill="#25b6d2" style="fill:var(--color5, #25b6d2)" d="M8.589 13.771H7.434L8.67 7.869h1.155L9.382 9.97c.261-.204.504-.351.729-.441s.467-.135.725-.135c.346 0 .62.1.822.298s.302.459.302.781c0 .172-.037.438-.113.797l-.524 2.5h-1.155l.536-2.549c.056-.277.085-.454.085-.531 0-.143-.044-.257-.133-.342s-.21-.129-.363-.129a.908.908 0 0 0-.556.201 1.75 1.75 0 0 0-.527.652c-.068.143-.156.476-.265 1.002l-.354 1.694zM12.745 10.354l.177-.857h.564l.14-.684 1.325-.797-.31 1.482h.704l-.177.857h-.709l-.374 1.791c-.067.325-.101.51-.101.556 0 .088.028.158.085.207s.158.075.306.075c.051 0 .178-.009.383-.028l-.181.857c-.198.04-.402.06-.612.06-.408 0-.704-.079-.889-.236s-.278-.375-.278-.655c0-.132.05-.435.149-.909l.358-1.719-.56-.001zM16.058 9.496h1.087l-.108.52c.424-.414.869-.62 1.337-.62.322 0 .57.067.744.201s.285.319.334.556c.148-.214.36-.395.636-.54s.564-.217.861-.217c.341 0 .607.091.797.274s.285.424.285.725c0 .148-.038.402-.113.764l-.547 2.613h-1.155l.547-2.613c.067-.328.101-.512.101-.556 0-.118-.035-.211-.107-.28s-.177-.103-.32-.103c-.287 0-.544.152-.768.455-.164.217-.303.603-.419 1.155l-.407 1.941h-1.155l.54-2.585c.061-.298.093-.491.093-.58 0-.113-.038-.206-.114-.277s-.182-.109-.317-.109c-.126 0-.256.038-.39.113s-.252.178-.352.31-.187.3-.259.507a7.952 7.952 0 0 0-.157.656l-.41 1.964h-1.155l.894-4.274zM22.523 13.771l1.236-5.902h1.151l-1.232 5.902h-1.155z"/>
      <path fill="#fff" style="fill:var(--color4, #fff)" d="m8.713 19.622 4.832-2.244v1.067l-3.654 1.601v.02l3.654 1.601v1.067L8.713 20.49v-.866zM14.29 23.136l2.154-7.298h1.017l-2.154 7.298H14.29zM22.877 20.518l-4.832 2.215v-1.067l3.735-1.601v-.02l-3.735-1.601v-1.067l4.831 2.215v.926z"/>
    </symbol>
    <symbol id="icon-briefcase-svgrepo-com" viewBox="0 0 32 32">
      <path d="M28.121 9.306c-1.133-1.253-3.027-1.88-5.773-1.88h-.32v-.053c0-2.24 0-5.013-5.013-5.013h-2.027c-5.013 0-5.013 2.787-5.013 5.013v.067h-.32c-2.76 0-4.64.627-5.773 1.88-1.32 1.467-1.28 3.44-1.147 4.787l.013.093.103 1.084c.019.2.127.38.294.49.32.209.855.554 1.176.732.187.12.387.227.587.333a22.916 22.916 0 0 0 7.333 2.507c.12 1.253.667 2.72 3.587 2.72s3.493-1.453 3.587-2.747a22.449 22.449 0 0 0 7.72-2.773c.08-.04.133-.08.2-.12a17.456 17.456 0 0 0 1.578-1.028.66.66 0 0 0 .268-.461l.021-.19.067-.627c.013-.08.013-.147.027-.24.107-1.347.08-3.187-1.173-4.573zm-10.666 9.133c0 1.413 0 1.627-1.64 1.627s-1.64-.253-1.64-1.613v-1.68h3.28v1.667zM11.881 7.426v-.053c0-2.267 0-3.107 3.107-3.107h2.027c3.107 0 3.107.853 3.107 3.107v.067h-8.24v-.013z"/>
      <path d="M27.831 18.313a.678.678 0 0 1 .967.669l-.479 5.272c-.28 2.667-1.373 5.387-7.24 5.387h-10.16c-5.867 0-6.96-2.72-7.24-5.373l-.454-4.997a.678.678 0 0 1 .954-.675c1.519.687 4.323 1.907 6.056 2.361a.76.76 0 0 1 .492.419c.809 1.731 2.565 2.652 5.099 2.652 2.51 0 4.287-.956 5.099-2.691a.763.763 0 0 1 .493-.42c1.839-.484 4.824-1.847 6.413-2.603z"/>
    </symbol>
  </defs>
</svg>